<?xml version="1.0" encoding="UTF-8"?>
<svg xmlns="http://www.w3.org/2000/svg" width="1200" height="900" viewBox="0 0 1200 900" fill="none">
<defs>
<linearGradient id="bg" x1="0" y1="0" x2="1" y2="1">
<stop offset="0%" stop-color="#F7FBFF"/>
<stop offset="55%" stop-color="#F4F7FB"/>
<stop offset="100%" stop-color="#EAF7F4"/>
</linearGradient>
<linearGradient id="g1" x1="0" y1="0" x2="1" y2="1">
<stop offset="0%" stop-color="#0F8F83"/>
<stop offset="100%" stop-color="#32C0B3"/>
</linearGradient>
<linearGradient id="g2" x1="0" y1="0" x2="1" y2="1">
<stop offset="0%" stop-color="#2F6BFF"/>
<stop offset="100%" stop-color="#8DB0FF"/>
</linearGradient>
<filter id="shadow" x="-20%" y="-20%" width="140%" height="140%">
<feDropShadow dx="0" dy="18" stdDeviation="22" flood-color="#10202E" flood-opacity=".12"/>
</filter>
</defs>

    <ellipse cx="790" cy="196" rx="170" ry="170" fill="#D9F5EE"/>
    <ellipse cx="856" cy="272" rx="120" ry="120" fill="#DFEAFE"/>
    <rect x="650" y="90" width="392" height="620" rx="52" fill="#FFFFFF" filter="url(#shadow)"/>
    <rect x="682" y="126" width="328" height="90" rx="24" fill="url(#g1)"/>
    <text x="710" y="170" fill="#FFFFFF" font-family="Microsoft YaHei" font-size="26" font-weight="700">中医云健康</text>
    <text x="710" y="196" fill="#D9FFF9" font-family="Microsoft YaHei" font-size="15">传染病健康管理中心</text>
    <rect x="682" y="238" width="156" height="140" rx="28" fill="#F7FBFD" stroke="#E2EAF0"/>
    <rect x="854" y="238" width="156" height="140" rx="28" fill="#F5FAFF" stroke="#D9E7FF"/>
    <rect x="682" y="394" width="328" height="118" rx="28" fill="#F5FBF8" stroke="#D7EDE4"/>
    <rect x="682" y="530" width="156" height="122" rx="24" fill="#FFF7EA" stroke="#F1DEAF"/>
    <rect x="854" y="530" width="156" height="122" rx="24" fill="#FFF0F5" stroke="#F6C7D4"/>
    <circle cx="988" cy="280" r="48" fill="none" stroke="#0F8F83" stroke-width="14" stroke-linecap="round" stroke-dasharray="202 35"/>
    <text x="972" y="286" fill="#0F8F83" font-family="Microsoft YaHei" font-size="28" font-weight="800">86</text>
    <text x="948" y="318" fill="#5A6B7A" font-family="Microsoft YaHei" font-size="13">健康评分</text>
    <text x="708" y="280" fill="#17212B" font-family="Microsoft YaHei" font-size="15" font-weight="700">体温</text>
    <text x="708" y="308" fill="#17212B" font-family="Microsoft YaHei" font-size="26" font-weight="800">36.7°</text>
    <text x="880" y="280" fill="#17212B" font-family="Microsoft YaHei" font-size="15" font-weight="700">血压</text>
    <text x="880" y="308" fill="#17212B" font-family="Microsoft YaHei" font-size="26" font-weight="800">118/76</text>
    <text x="708" y="434" fill="#17212B" font-family="Microsoft YaHei" font-size="16" font-weight="700">今日待办</text>
    <text x="708" y="462" fill="#5A6B7A" font-family="Microsoft YaHei" font-size="14">问诊 · 检测 · 复诊 · 饮食 · 运动</text>
    <text x="708" y="584" fill="#17212B" font-family="Microsoft YaHei" font-size="15" font-weight="700">睡眠</text>
    <text x="708" y="614" fill="#17212B" font-family="Microsoft YaHei" font-size="24" font-weight="800">7.2h</text>
    <text x="882" y="584" fill="#17212B" font-family="Microsoft YaHei" font-size="15" font-weight="700">步数</text>
    <text x="882" y="614" fill="#17212B" font-family="Microsoft YaHei" font-size="24" font-weight="800">7200</text>
  
</svg>